M48
; DRILL file {KiCad (5.1.6)-1} date 05/29/20 12:25:06
; FORMAT={-:-/ absolute / metric / decimal}
; #@! TF.CreationDate,2020-05-29T12:25:06+03:00
; #@! TF.GenerationSoftware,Kicad,Pcbnew,(5.1.6)-1
; #@! TF.FileFunction,Plated,1,4,PTH
FMAT,2
METRIC
T1C0.599
T2C0.600
T3C0.899
T4C0.900
%
G90
G05
T1
X77.851Y-26.035
X77.978Y-23.622
X86.55Y-22.352
X86.709Y-16.986
X93.408Y-10.287
X95.948Y-25.59
X96.044Y-41.37
X96.139Y-9.461
X97.028Y-6.667
X97.091Y-26.86
X98.996Y-28.892
X99.123Y-2.159
X99.441Y-46.863
X100.647Y-5.207
X101.219Y-2.159
X101.282Y-42.672
X101.282Y-46.038
X101.917Y-6.794
X102.616Y-39.306
X106.045Y-31.559
X107.632Y-30.797
X109.093Y-31.369
X109.791Y-29.464
X110.934Y-28.003
X112.079Y-31.752
X113.221Y-25.019
X114.139Y-27.657
X114.3Y-23.939
X114.427Y-31.559
X115.316Y-26.607
X118.376Y-21.298
T2
X73.279Y-23.622
X99.441Y-51.562
X101.219Y2.54
X127.381Y-25.4
T3
X79.947Y-24.384
X82.486Y-24.384
X135.255Y-23.241
X135.255Y-25.781
X99.06Y-59.436
X101.6Y-59.436
X92.964Y-17.018
X94.76Y-15.222
X96.556Y-13.426
X98.352Y-11.63
X100.148Y-9.834
X99.06Y10.414
X101.6Y10.414
X65.405Y-23.241
X65.405Y-25.781
T4
X88.683Y-23.655
X90.479Y-25.452
X92.275Y-27.248
X94.071Y-29.044
X95.867Y-30.84
X97.663Y-32.636
X99.46Y-34.432
X101.256Y-36.228
T0
M30
