G04 #@! TF.GenerationSoftware,KiCad,Pcbnew,(5.1.6)-1*
G04 #@! TF.CreationDate,2020-05-29T12:24:41+03:00*
G04 #@! TF.ProjectId,QuadV100,51756164-5631-4303-902e-6b696361645f,rev?*
G04 #@! TF.SameCoordinates,PX5b0b1acPY39a3b04*
G04 #@! TF.FileFunction,Copper,L1,Top*
G04 #@! TF.FilePolarity,Positive*
%FSLAX46Y46*%
G04 Gerber Fmt 4.6, Leading zero omitted, Abs format (unit mm)*
G04 Created by KiCad (PCBNEW (5.1.6)-1) date 2020-05-29 12:24:41*
%MOMM*%
%LPD*%
G01*
G04 APERTURE LIST*
G04 #@! TA.AperFunction,ComponentPad*
%ADD10C,1.900000*%
G04 #@! TD*
G04 #@! TA.AperFunction,SMDPad,CuDef*
%ADD11C,0.150000*%
G04 #@! TD*
G04 #@! TA.AperFunction,SMDPad,CuDef*
%ADD12R,0.800000X1.524000*%
G04 #@! TD*
G04 #@! TA.AperFunction,SMDPad,CuDef*
%ADD13R,1.524000X0.800000*%
G04 #@! TD*
G04 #@! TA.AperFunction,ComponentPad*
%ADD14R,1.699260X1.699260*%
G04 #@! TD*
G04 #@! TA.AperFunction,ComponentPad*
%ADD15C,1.699260*%
G04 #@! TD*
G04 #@! TA.AperFunction,SMDPad,CuDef*
%ADD16R,1.000760X0.800100*%
G04 #@! TD*
G04 #@! TA.AperFunction,SMDPad,CuDef*
%ADD17R,0.800100X1.000760*%
G04 #@! TD*
G04 #@! TA.AperFunction,SMDPad,CuDef*
%ADD18R,0.635000X1.143000*%
G04 #@! TD*
G04 #@! TA.AperFunction,SMDPad,CuDef*
%ADD19R,1.143000X0.635000*%
G04 #@! TD*
G04 #@! TA.AperFunction,ComponentPad*
%ADD20C,0.150000*%
G04 #@! TD*
G04 #@! TA.AperFunction,ViaPad*
%ADD21C,1.200000*%
G04 #@! TD*
G04 #@! TA.AperFunction,ViaPad*
%ADD22C,1.198880*%
G04 #@! TD*
G04 #@! TA.AperFunction,Conductor*
%ADD23C,0.800000*%
G04 #@! TD*
G04 #@! TA.AperFunction,Conductor*
%ADD24C,0.500380*%
G04 #@! TD*
G04 #@! TA.AperFunction,Conductor*
%ADD25C,0.599440*%
G04 #@! TD*
G04 #@! TA.AperFunction,Conductor*
%ADD26C,1.000000*%
G04 #@! TD*
G04 #@! TA.AperFunction,Conductor*
%ADD27C,0.398780*%
G04 #@! TD*
G04 #@! TA.AperFunction,Conductor*
%ADD28C,1.300000*%
G04 #@! TD*
G04 APERTURE END LIST*
D10*
X88683197Y-23655459D03*
X90479249Y-25451510D03*
X92275300Y-27247561D03*
X94071351Y-29043613D03*
X95867402Y-30839664D03*
X97663454Y-32635715D03*
X99459505Y-34431766D03*
X101255556Y-36227817D03*
G04 #@! TA.AperFunction,SMDPad,CuDef*
D11*
G36*
X109198210Y-25629567D02*
G01*
X110006433Y-26437790D01*
X109557420Y-26886803D01*
X108749197Y-26078580D01*
X109198210Y-25629567D01*
G37*
G04 #@! TD.AperFunction*
G04 #@! TA.AperFunction,SMDPad,CuDef*
G36*
X108120580Y-26707197D02*
G01*
X108928803Y-27515420D01*
X108479790Y-27964433D01*
X107671567Y-27156210D01*
X108120580Y-26707197D01*
G37*
G04 #@! TD.AperFunction*
G04 #@! TA.AperFunction,SMDPad,CuDef*
G36*
X107935914Y-24045258D02*
G01*
X108923742Y-25033086D01*
X108295124Y-25661704D01*
X107307296Y-24673876D01*
X107935914Y-24045258D01*
G37*
G04 #@! TD.AperFunction*
G04 #@! TA.AperFunction,SMDPad,CuDef*
G36*
X106588876Y-25392296D02*
G01*
X107576704Y-26380124D01*
X106948086Y-27008742D01*
X105960258Y-26020914D01*
X106588876Y-25392296D01*
G37*
G04 #@! TD.AperFunction*
G04 #@! TA.AperFunction,SMDPad,CuDef*
G36*
X88681876Y-20947296D02*
G01*
X89669704Y-21935124D01*
X89041086Y-22563742D01*
X88053258Y-21575914D01*
X88681876Y-20947296D01*
G37*
G04 #@! TD.AperFunction*
G04 #@! TA.AperFunction,SMDPad,CuDef*
G36*
X90028914Y-19600258D02*
G01*
X91016742Y-20588086D01*
X90388124Y-21216704D01*
X89400296Y-20228876D01*
X90028914Y-19600258D01*
G37*
G04 #@! TD.AperFunction*
G04 #@! TA.AperFunction,SMDPad,CuDef*
G36*
X90086580Y-22325697D02*
G01*
X90894803Y-23133920D01*
X90445790Y-23582933D01*
X89637567Y-22774710D01*
X90086580Y-22325697D01*
G37*
G04 #@! TD.AperFunction*
G04 #@! TA.AperFunction,SMDPad,CuDef*
G36*
X91164210Y-21248067D02*
G01*
X91972433Y-22056290D01*
X91523420Y-22505303D01*
X90715197Y-21697080D01*
X91164210Y-21248067D01*
G37*
G04 #@! TD.AperFunction*
G04 #@! TA.AperFunction,SMDPad,CuDef*
G36*
X92561210Y-22645067D02*
G01*
X93369433Y-23453290D01*
X92920420Y-23902303D01*
X92112197Y-23094080D01*
X92561210Y-22645067D01*
G37*
G04 #@! TD.AperFunction*
G04 #@! TA.AperFunction,SMDPad,CuDef*
G36*
X91483580Y-23722697D02*
G01*
X92291803Y-24530920D01*
X91842790Y-24979933D01*
X91034567Y-24171710D01*
X91483580Y-23722697D01*
G37*
G04 #@! TD.AperFunction*
G04 #@! TA.AperFunction,SMDPad,CuDef*
G36*
X116085282Y-24011582D02*
G01*
X116933018Y-24859318D01*
X116367332Y-25425004D01*
X115519596Y-24577268D01*
X116085282Y-24011582D01*
G37*
G04 #@! TD.AperFunction*
G04 #@! TA.AperFunction,SMDPad,CuDef*
G36*
X114671068Y-25425796D02*
G01*
X115518804Y-26273532D01*
X114953118Y-26839218D01*
X114105382Y-25991482D01*
X114671068Y-25425796D01*
G37*
G04 #@! TD.AperFunction*
D12*
X67818000Y-25844500D03*
X67818000Y-23177500D03*
D13*
X101663500Y8001000D03*
X98996500Y8001000D03*
D12*
X132842000Y-25844500D03*
X132842000Y-23177500D03*
D13*
X101663500Y-57023000D03*
X98996500Y-57023000D03*
D14*
X82486500Y-24384000D03*
D15*
X79946500Y-24384000D03*
X65405000Y-25781000D03*
D14*
X65405000Y-23241000D03*
X101600000Y10414000D03*
D15*
X99060000Y10414000D03*
X135255000Y-23241000D03*
D14*
X135255000Y-25781000D03*
X99060000Y-59436000D03*
D15*
X101600000Y-59436000D03*
D16*
X71838820Y-25463500D03*
X69639180Y-24511000D03*
X71838820Y-23558500D03*
D17*
X101282500Y3980180D03*
X100330000Y6179820D03*
X99377500Y3980180D03*
D16*
X128821180Y-23558500D03*
X131020820Y-24511000D03*
X128821180Y-25463500D03*
D17*
X99377500Y-53002180D03*
X100330000Y-55201820D03*
X101282500Y-53002180D03*
G04 #@! TA.AperFunction,SMDPad,CuDef*
D11*
G36*
X91969790Y-32028433D02*
G01*
X91161567Y-31220210D01*
X91610580Y-30771197D01*
X92418803Y-31579420D01*
X91969790Y-32028433D01*
G37*
G04 #@! TD.AperFunction*
G04 #@! TA.AperFunction,SMDPad,CuDef*
G36*
X93047420Y-30950803D02*
G01*
X92239197Y-30142580D01*
X92688210Y-29693567D01*
X93496433Y-30501790D01*
X93047420Y-30950803D01*
G37*
G04 #@! TD.AperFunction*
G04 #@! TA.AperFunction,SMDPad,CuDef*
G36*
X94825420Y-32728803D02*
G01*
X94017197Y-31920580D01*
X94466210Y-31471567D01*
X95274433Y-32279790D01*
X94825420Y-32728803D01*
G37*
G04 #@! TD.AperFunction*
G04 #@! TA.AperFunction,SMDPad,CuDef*
G36*
X93747790Y-33806433D02*
G01*
X92939567Y-32998210D01*
X93388580Y-32549197D01*
X94196803Y-33357420D01*
X93747790Y-33806433D01*
G37*
G04 #@! TD.AperFunction*
D18*
X74676000Y-25400000D03*
X76200000Y-25400000D03*
X74676000Y-23622000D03*
X76200000Y-23622000D03*
D19*
X99441000Y-381000D03*
X99441000Y1143000D03*
X101219000Y1143000D03*
X101219000Y-381000D03*
D18*
X124460000Y-23622000D03*
X125984000Y-23622000D03*
X124460000Y-25400000D03*
X125984000Y-25400000D03*
D19*
X101219000Y-48641000D03*
X101219000Y-50165000D03*
X99441000Y-48641000D03*
X99441000Y-50165000D03*
G04 #@! TA.AperFunction,SMDPad,CuDef*
D11*
G36*
X96603420Y-34506803D02*
G01*
X95795197Y-33698580D01*
X96244210Y-33249567D01*
X97052433Y-34057790D01*
X96603420Y-34506803D01*
G37*
G04 #@! TD.AperFunction*
G04 #@! TA.AperFunction,SMDPad,CuDef*
G36*
X95525790Y-35584433D02*
G01*
X94717567Y-34776210D01*
X95166580Y-34327197D01*
X95974803Y-35135420D01*
X95525790Y-35584433D01*
G37*
G04 #@! TD.AperFunction*
G04 #@! TA.AperFunction,SMDPad,CuDef*
G36*
X97303790Y-37362433D02*
G01*
X96495567Y-36554210D01*
X96944580Y-36105197D01*
X97752803Y-36913420D01*
X97303790Y-37362433D01*
G37*
G04 #@! TD.AperFunction*
G04 #@! TA.AperFunction,SMDPad,CuDef*
G36*
X98381420Y-36284803D02*
G01*
X97573197Y-35476580D01*
X98022210Y-35027567D01*
X98830433Y-35835790D01*
X98381420Y-36284803D01*
G37*
G04 #@! TD.AperFunction*
G04 #@! TA.AperFunction,SMDPad,CuDef*
G36*
X100159420Y-38062803D02*
G01*
X99351197Y-37254580D01*
X99800210Y-36805567D01*
X100608433Y-37613790D01*
X100159420Y-38062803D01*
G37*
G04 #@! TD.AperFunction*
G04 #@! TA.AperFunction,SMDPad,CuDef*
G36*
X99081790Y-39140433D02*
G01*
X98273567Y-38332210D01*
X98722580Y-37883197D01*
X99530803Y-38691420D01*
X99081790Y-39140433D01*
G37*
G04 #@! TD.AperFunction*
G04 #@! TA.AperFunction,SMDPad,CuDef*
G36*
X118320420Y-23381603D02*
G01*
X117512197Y-22573380D01*
X117961210Y-22124367D01*
X118769433Y-22932590D01*
X118320420Y-23381603D01*
G37*
G04 #@! TD.AperFunction*
G04 #@! TA.AperFunction,SMDPad,CuDef*
G36*
X117242790Y-24459233D02*
G01*
X116434567Y-23651010D01*
X116883580Y-23201997D01*
X117691803Y-24010220D01*
X117242790Y-24459233D01*
G37*
G04 #@! TD.AperFunction*
G04 #@! TA.AperFunction,SMDPad,CuDef*
G36*
X95972933Y-12043210D02*
G01*
X95164710Y-12851433D01*
X94715697Y-12402420D01*
X95523920Y-11594197D01*
X95972933Y-12043210D01*
G37*
G04 #@! TD.AperFunction*
G04 #@! TA.AperFunction,SMDPad,CuDef*
G36*
X94895303Y-10965580D02*
G01*
X94087080Y-11773803D01*
X93638067Y-11324790D01*
X94446290Y-10516567D01*
X94895303Y-10965580D01*
G37*
G04 #@! TD.AperFunction*
G04 #@! TA.AperFunction,ComponentPad*
D20*
G36*
X92964000Y-18219558D02*
G01*
X91762442Y-17018000D01*
X92964000Y-15816442D01*
X94165558Y-17018000D01*
X92964000Y-18219558D01*
G37*
G04 #@! TD.AperFunction*
D15*
X94760051Y-15221949D03*
X96556102Y-13425898D03*
X98352154Y-11629846D03*
X100148205Y-9833795D03*
G04 #@! TA.AperFunction,SMDPad,CuDef*
D11*
G36*
X97067067Y-14753790D02*
G01*
X97875290Y-13945567D01*
X98324303Y-14394580D01*
X97516080Y-15202803D01*
X97067067Y-14753790D01*
G37*
G04 #@! TD.AperFunction*
G04 #@! TA.AperFunction,SMDPad,CuDef*
G36*
X98144697Y-15831420D02*
G01*
X98952920Y-15023197D01*
X99401933Y-15472210D01*
X98593710Y-16280433D01*
X98144697Y-15831420D01*
G37*
G04 #@! TD.AperFunction*
G04 #@! TA.AperFunction,SMDPad,CuDef*
G36*
X105136080Y-34962197D02*
G01*
X105944303Y-35770420D01*
X105495290Y-36219433D01*
X104687067Y-35411210D01*
X105136080Y-34962197D01*
G37*
G04 #@! TD.AperFunction*
G04 #@! TA.AperFunction,SMDPad,CuDef*
G36*
X106213710Y-33884567D02*
G01*
X107021933Y-34692790D01*
X106572920Y-35141803D01*
X105764697Y-34333580D01*
X106213710Y-33884567D01*
G37*
G04 #@! TD.AperFunction*
G04 #@! TA.AperFunction,SMDPad,CuDef*
G36*
X105070710Y-32741567D02*
G01*
X105878933Y-33549790D01*
X105429920Y-33998803D01*
X104621697Y-33190580D01*
X105070710Y-32741567D01*
G37*
G04 #@! TD.AperFunction*
G04 #@! TA.AperFunction,SMDPad,CuDef*
G36*
X103993080Y-33819197D02*
G01*
X104801303Y-34627420D01*
X104352290Y-35076433D01*
X103544067Y-34268210D01*
X103993080Y-33819197D01*
G37*
G04 #@! TD.AperFunction*
G04 #@! TA.AperFunction,SMDPad,CuDef*
G36*
X102850080Y-32676197D02*
G01*
X103658303Y-33484420D01*
X103209290Y-33933433D01*
X102401067Y-33125210D01*
X102850080Y-32676197D01*
G37*
G04 #@! TD.AperFunction*
G04 #@! TA.AperFunction,SMDPad,CuDef*
G36*
X103927710Y-31598567D02*
G01*
X104735933Y-32406790D01*
X104286920Y-32855803D01*
X103478697Y-32047580D01*
X103927710Y-31598567D01*
G37*
G04 #@! TD.AperFunction*
G04 #@! TA.AperFunction,SMDPad,CuDef*
G36*
X113190588Y-21780565D02*
G01*
X112382365Y-22588788D01*
X111933352Y-22139775D01*
X112741575Y-21331552D01*
X113190588Y-21780565D01*
G37*
G04 #@! TD.AperFunction*
G04 #@! TA.AperFunction,SMDPad,CuDef*
G36*
X114268218Y-22858195D02*
G01*
X113459995Y-23666418D01*
X113010982Y-23217405D01*
X113819205Y-22409182D01*
X114268218Y-22858195D01*
G37*
G04 #@! TD.AperFunction*
G04 #@! TA.AperFunction,SMDPad,CuDef*
G36*
X113079833Y-24057410D02*
G01*
X112271610Y-24865633D01*
X111822597Y-24416620D01*
X112630820Y-23608397D01*
X113079833Y-24057410D01*
G37*
G04 #@! TD.AperFunction*
G04 #@! TA.AperFunction,SMDPad,CuDef*
G36*
X112002203Y-22979780D02*
G01*
X111193980Y-23788003D01*
X110744967Y-23338990D01*
X111553190Y-22530767D01*
X112002203Y-22979780D01*
G37*
G04 #@! TD.AperFunction*
D21*
X101219000Y2540000D03*
D22*
X101219000Y-2159000D03*
D21*
X127381000Y-25400000D03*
X99441000Y-51562000D03*
D22*
X99441000Y-46863000D03*
D21*
X73279000Y-23622000D03*
D22*
X77978000Y-23622000D03*
X110934500Y-28003500D03*
X114427000Y-31559500D03*
X86709250Y-16986250D03*
X93408500Y-10287000D03*
X97028000Y-6667500D03*
X96043750Y-41370250D03*
X115316000Y-26606500D03*
X109791500Y-29464000D03*
X101282500Y-42672000D03*
X101282500Y-46037500D03*
X100647500Y-5207000D03*
X99123500Y-2159000D03*
X112079187Y-31751687D03*
X77851000Y-26035000D03*
X96139000Y-9461500D03*
X98996500Y-28892500D03*
X86550500Y-22352000D03*
X101917500Y-6794500D03*
X114138607Y-27656893D03*
X102616000Y-39306500D03*
X118376379Y-21298221D03*
X95948500Y-25590500D03*
X97091500Y-26860500D03*
X109093000Y-31369000D03*
X107632500Y-30797500D03*
X106045000Y-31559500D03*
X114300000Y-23939500D03*
X113220500Y-25019000D03*
D23*
X101282500Y2476500D02*
X101282500Y1206500D01*
D24*
X101282500Y2476500D02*
X101219000Y2540000D01*
D23*
X101282500Y3980180D02*
X101282500Y2476500D01*
X101282500Y1206500D02*
X101219000Y1143000D01*
X127317500Y-25463500D02*
X126047500Y-25463500D01*
D24*
X127317500Y-25463500D02*
X127381000Y-25400000D01*
D23*
X128821180Y-25463500D02*
X127317500Y-25463500D01*
X126047500Y-25463500D02*
X125984000Y-25400000D01*
X99377500Y-51498500D02*
X99377500Y-50228500D01*
D24*
X99377500Y-51498500D02*
X99441000Y-51562000D01*
D23*
X99377500Y-53002180D02*
X99377500Y-51498500D01*
X99377500Y-50228500D02*
X99441000Y-50165000D01*
X74612500Y-23558500D02*
X74676000Y-23622000D01*
D24*
X73342500Y-23558500D02*
X73279000Y-23622000D01*
D23*
X73342500Y-23558500D02*
X74612500Y-23558500D01*
X71838820Y-23558500D02*
X73342500Y-23558500D01*
D25*
X95346185Y-34955815D02*
X97124185Y-36733815D01*
X97124185Y-36733815D02*
X98902185Y-38511815D01*
X92740815Y-23273685D02*
X91343815Y-21876685D01*
X91343815Y-21876685D02*
X90678000Y-21210870D01*
X90678000Y-20877962D02*
X90208519Y-20408481D01*
X90678000Y-21210870D02*
X90678000Y-20877962D01*
X92740815Y-23273685D02*
X93599000Y-24131870D01*
X93599000Y-25923861D02*
X92275300Y-27247561D01*
X93599000Y-24131870D02*
X93599000Y-25923861D01*
D24*
X108115519Y-24995889D02*
X109377815Y-26258185D01*
X108115519Y-24853481D02*
X108115519Y-24995889D01*
X109377815Y-26446815D02*
X110934500Y-28003500D01*
X109377815Y-26258185D02*
X109377815Y-26446815D01*
D26*
X110934500Y-28003500D02*
X110934500Y-28067000D01*
D23*
X90131481Y-20408481D02*
X86709250Y-16986250D01*
X90208519Y-20408481D02*
X90131481Y-20408481D01*
D25*
X94266685Y-11145185D02*
X93408500Y-10287000D01*
X100148205Y-9787705D02*
X97028000Y-6667500D01*
X100148205Y-9833795D02*
X100148205Y-9787705D01*
D24*
X98902185Y-38511815D02*
X96043750Y-41370250D01*
D27*
X115316000Y-26606500D02*
X114871500Y-26162000D01*
X114871500Y-26162000D02*
X113792000Y-26162000D01*
X111442500Y-28511500D02*
X111379000Y-28511500D01*
D26*
X110934500Y-28067000D02*
X111379000Y-28511500D01*
D27*
X113792000Y-26162000D02*
X111442500Y-28511500D01*
D26*
X111379000Y-28511500D02*
X114427000Y-31559500D01*
D27*
X114842007Y-26132507D02*
X115316000Y-26606500D01*
X114812093Y-26132507D02*
X114842007Y-26132507D01*
D23*
X101663500Y8001000D02*
X101663500Y10350500D01*
X101663500Y10350500D02*
X101600000Y10414000D01*
X132842000Y-25844500D02*
X135191500Y-25844500D01*
X135191500Y-25844500D02*
X135255000Y-25781000D01*
X98996500Y-57023000D02*
X98996500Y-59372500D01*
X98996500Y-59372500D02*
X99060000Y-59436000D01*
X65468500Y-23177500D02*
X65405000Y-23241000D01*
X67818000Y-23177500D02*
X65468500Y-23177500D01*
D25*
X90060277Y-22954315D02*
X88861481Y-21755519D01*
X90266185Y-22954315D02*
X90060277Y-22954315D01*
X89565041Y-23655459D02*
X90266185Y-22954315D01*
X88683197Y-23655459D02*
X89565041Y-23655459D01*
D24*
X108300185Y-27335815D02*
X107507370Y-26543000D01*
X107110962Y-26543000D02*
X106768481Y-26200519D01*
X107507370Y-26543000D02*
X107110962Y-26543000D01*
X108300185Y-27335815D02*
X109474000Y-28509630D01*
X109474000Y-29146500D02*
X109791500Y-29464000D01*
X109474000Y-28509630D02*
X109474000Y-29146500D01*
D26*
X101282500Y-42672000D02*
X101282500Y-46037500D01*
X100647500Y-5207000D02*
X100647500Y-4191000D01*
X100647500Y-4191000D02*
X99123500Y-2667000D01*
X99123500Y-2667000D02*
X99123500Y-2159000D01*
X109791500Y-29464000D02*
X112079187Y-31751687D01*
X80835500Y-26035000D02*
X82486500Y-24384000D01*
X77851000Y-26035000D02*
X80835500Y-26035000D01*
D25*
X98352154Y-11629846D02*
X99504500Y-12782192D01*
X99504500Y-14920630D02*
X99503565Y-14921565D01*
X99504500Y-12782192D02*
X99504500Y-14920630D01*
X99503565Y-14921565D02*
X98773315Y-15651815D01*
X98307346Y-11629846D02*
X96139000Y-9461500D01*
X98352154Y-11629846D02*
X98307346Y-11629846D01*
X93568185Y-33177815D02*
X91790185Y-31399815D01*
X91579444Y-24351315D02*
X90479249Y-25451510D01*
X91663185Y-24351315D02*
X91579444Y-24351315D01*
X91790185Y-31399815D02*
X89598500Y-29208130D01*
X89598500Y-26332259D02*
X90479249Y-25451510D01*
X89598500Y-29208130D02*
X89598500Y-26332259D01*
D27*
X116226307Y-24667493D02*
X117063185Y-23830615D01*
X116226307Y-24718293D02*
X116226307Y-24667493D01*
D28*
X69639180Y-24848820D02*
X68643500Y-25844500D01*
X69639180Y-24511000D02*
X69639180Y-24848820D01*
X68643500Y-25844500D02*
X67818000Y-25844500D01*
X65468500Y-25844500D02*
X65405000Y-25781000D01*
X67818000Y-25844500D02*
X65468500Y-25844500D01*
X99992180Y6179820D02*
X98996500Y7175500D01*
X100330000Y6179820D02*
X99992180Y6179820D01*
X98996500Y7175500D02*
X98996500Y8001000D01*
X98996500Y10350500D02*
X99060000Y10414000D01*
X98996500Y8001000D02*
X98996500Y10350500D01*
X131020820Y-24173180D02*
X132016500Y-23177500D01*
X131020820Y-24511000D02*
X131020820Y-24173180D01*
X132016500Y-23177500D02*
X132842000Y-23177500D01*
X135191500Y-23177500D02*
X135255000Y-23241000D01*
X132842000Y-23177500D02*
X135191500Y-23177500D01*
X100667820Y-55201820D02*
X101663500Y-56197500D01*
X100330000Y-55201820D02*
X100667820Y-55201820D01*
X101663500Y-56197500D02*
X101663500Y-57023000D01*
X101663500Y-59372500D02*
X101600000Y-59436000D01*
X101663500Y-57023000D02*
X101663500Y-59372500D01*
D23*
X74612500Y-25463500D02*
X74676000Y-25400000D01*
X71838820Y-25463500D02*
X74612500Y-25463500D01*
X99377500Y3980180D02*
X99377500Y1206500D01*
X99377500Y1206500D02*
X99441000Y1143000D01*
X128821180Y-23558500D02*
X126047500Y-23558500D01*
X126047500Y-23558500D02*
X125984000Y-23622000D01*
X101282500Y-53002180D02*
X101282500Y-50228500D01*
X101282500Y-50228500D02*
X101219000Y-50165000D01*
D25*
X92867815Y-30247149D02*
X94071351Y-29043613D01*
X92867815Y-30322185D02*
X92867815Y-30247149D01*
D27*
X103029685Y-33304815D02*
X99823870Y-30099000D01*
X99823870Y-30099000D02*
X97663000Y-30099000D01*
X96607613Y-29043613D02*
X94071351Y-29043613D01*
X97663000Y-30099000D02*
X96805750Y-29241750D01*
X96805750Y-29241750D02*
X96607613Y-29043613D01*
D24*
X101028500Y-27559000D02*
X107124500Y-21463000D01*
X107124500Y-21463000D02*
X112064800Y-21463000D01*
X96805750Y-29241750D02*
X98488500Y-27559000D01*
X112064800Y-21463000D02*
X112561970Y-21960170D01*
X98488500Y-27559000D02*
X101028500Y-27559000D01*
D25*
X94645815Y-32061251D02*
X95867402Y-30839664D01*
X94645815Y-32100185D02*
X94645815Y-32061251D01*
D27*
X104172685Y-34447815D02*
X103695500Y-34925000D01*
X103695500Y-34925000D02*
X103314500Y-34925000D01*
X99229164Y-30839664D02*
X95867402Y-30839664D01*
X103314500Y-34925000D02*
X99229164Y-30839664D01*
D24*
X110756700Y-22542500D02*
X111373585Y-23159385D01*
X107315000Y-22542500D02*
X110756700Y-22542500D01*
X98996500Y-28892500D02*
X100965000Y-28892500D01*
X100965000Y-28892500D02*
X107315000Y-22542500D01*
D25*
X76200000Y-23622000D02*
X76200000Y-25400000D01*
D27*
X76200000Y-23622000D02*
X76200000Y-22987000D01*
X76200000Y-22987000D02*
X76581000Y-22606000D01*
X86296500Y-22606000D02*
X86550500Y-22352000D01*
X76581000Y-22606000D02*
X86296500Y-22606000D01*
D25*
X101219000Y-381000D02*
X99441000Y-381000D01*
D27*
X101219000Y-381000D02*
X101790500Y-381000D01*
X101790500Y-381000D02*
X102207831Y-798331D01*
X102207831Y-6504169D02*
X101917500Y-6794500D01*
X102207831Y-4290831D02*
X102207831Y-6504169D01*
X102207831Y-798331D02*
X102207831Y-4290831D01*
D25*
X124460000Y-25400000D02*
X124460000Y-23622000D01*
D27*
X124460000Y-26035000D02*
X124460000Y-25400000D01*
X124079000Y-26416000D02*
X124460000Y-26035000D01*
X117856000Y-28575000D02*
X120015000Y-26416000D01*
X120015000Y-26416000D02*
X124079000Y-26416000D01*
X115056714Y-28575000D02*
X117856000Y-28575000D01*
X114138607Y-27656893D02*
X115056714Y-28575000D01*
D25*
X99441000Y-48641000D02*
X101219000Y-48641000D01*
D27*
X101219000Y-40703500D02*
X102616000Y-39306500D01*
X99441000Y-48641000D02*
X98933000Y-48641000D01*
X98933000Y-48641000D02*
X98425000Y-48133000D01*
X98425000Y-43497500D02*
X101219000Y-40703500D01*
X98425000Y-48133000D02*
X98425000Y-43497500D01*
D25*
X96423815Y-33875354D02*
X97663454Y-32635715D01*
X96423815Y-33878185D02*
X96423815Y-33875354D01*
D27*
X97663454Y-32635715D02*
X100072715Y-32635715D01*
X100072715Y-32635715D02*
X103441500Y-36004500D01*
X104902000Y-36004500D02*
X105315685Y-35590815D01*
X103441500Y-36004500D02*
X104902000Y-36004500D01*
D25*
X98235086Y-35656185D02*
X99459505Y-34431766D01*
X98201815Y-35656185D02*
X98235086Y-35656185D01*
D24*
X100049188Y-37434185D02*
X101255556Y-36227817D01*
X99979815Y-37434185D02*
X100049188Y-37434185D01*
D27*
X118140815Y-22752985D02*
X118465600Y-22428200D01*
X118465600Y-22428200D02*
X118465600Y-21387442D01*
X118465600Y-21387442D02*
X118376379Y-21298221D01*
X95948500Y-20002500D02*
X92964000Y-17018000D01*
X95948500Y-25590500D02*
X95948500Y-20002500D01*
X97091500Y-17553398D02*
X94760051Y-15221949D01*
X97091500Y-26860500D02*
X97091500Y-17553398D01*
X106393315Y-34513185D02*
X109093000Y-31813500D01*
X109093000Y-31813500D02*
X109093000Y-31369000D01*
X105250315Y-33370185D02*
X105791000Y-32829500D01*
X105791000Y-32829500D02*
X106870500Y-32829500D01*
X106870500Y-32829500D02*
X107632500Y-32067500D01*
X107632500Y-32067500D02*
X107632500Y-30797500D01*
X104107315Y-32227185D02*
X104711500Y-31623000D01*
X104711500Y-31623000D02*
X105981500Y-31623000D01*
X105981500Y-31623000D02*
X106045000Y-31559500D01*
X97695685Y-14565481D02*
X96556102Y-13425898D01*
X97695685Y-14574185D02*
X97695685Y-14565481D01*
X96547398Y-13425898D02*
X95344315Y-12222815D01*
X96556102Y-13425898D02*
X96547398Y-13425898D01*
D24*
X114300000Y-23698200D02*
X113639600Y-23037800D01*
X114300000Y-23939500D02*
X114300000Y-23698200D01*
X113220500Y-25006300D02*
X112451215Y-24237015D01*
X113220500Y-25019000D02*
X113220500Y-25006300D01*
M02*
